Coordinates
version=1
nRows=22
nColumns=24
inDegrees=yes

Units are S.I. units (second, meters, Newtons, ...)
Angles are in degrees.

endheader
time	pelvis_tilt	pelvis_list	pelvis_rotation	pelvis_tx	pelvis_ty	pelvis_tz	hip_flexion_r	hip_adduction_r	hip_rotation_r	knee_angle_r	ankle_angle_r	subtalar_angle_r	mtp_angle_r	hip_flexion_l	hip_adduction_l	hip_rotation_l	knee_angle_l	ankle_angle_l	subtalar_angle_l	mtp_angle_l	lumbar_extension	lumbar_bending	lumbar_rotation
      0.88300000	     -3.66153180	     -2.46051674	     -0.66140162	     -0.23248916	      1.04992942	      0.34545322	     -3.37272848	      8.30460817	      2.69326221	    -13.80799259	     11.73297184	    -13.56508241	      0.47434424	     26.39619688	     -1.47947057	     -5.77512208	     -3.84526193	      4.72710750	      4.79278160	     -0.58173877	      5.49583335	      6.03936523	      1.68782924
      0.88716667	     -3.68116626	     -2.48275551	     -0.71862034	     -0.22663099	      1.04927141	      0.34534065	     -3.44803420	      8.30855994	      2.64975751	    -14.32163176	     11.71507479	    -13.55806312	      0.47097826	     26.31553591	     -1.46641898	     -5.74450792	     -3.76216357	      4.73523547	      4.87937727	     -0.59486114	      5.52504236	      6.04906908	      1.68427624
      0.89133333	     -3.68366836	     -2.48868139	     -0.76791837	     -0.22068253	      1.04866865	      0.34520303	     -3.53006013	      8.28980485	      2.54645478	    -14.86620328	     11.70604866	    -13.51751157	      0.46882676	     26.21286431	     -1.43259684	     -5.72628742	     -3.75003973	      4.72666626	      5.00538058	     -0.60777950	      5.56943470	      6.05826498	      1.68672081
      0.89550000	     -3.67084873	     -2.49154196	     -0.81199238	     -0.21470155	      1.04811138	      0.34505926	     -3.60698514	      8.26266972	      2.40245646	    -15.45671727	     11.69403417	    -13.43528985	      0.46833759	     26.09469049	     -1.39383058	     -5.70647483	     -3.81158631	      4.70139284	      5.16405361	     -0.61959971	      5.61626875	      6.06011198	      1.69466113
      0.89966667	     -3.58790100	     -2.47344212	     -0.68178006	     -0.20854752	      1.04764383	      0.34464945	     -3.75942655	      8.21062501	      1.96216092	    -16.04405324	     11.83820344	    -12.65420791	      0.47542023	     25.94561896	     -1.25657438	     -5.80422027	     -4.00587544	      4.63105335	      5.92867985	     -0.68662247	      5.55866565	      6.05982416	      1.75648880
      0.90383333	     -3.57041897	     -2.46514767	     -0.77551631	     -0.20254098	      1.04716076	      0.34461210	     -3.80431542	      8.16386025	      1.90799647	    -16.71482850	     11.80669344	    -12.62326726	      0.47641935	     25.79906019	     -1.23415613	     -5.73484157	     -4.15610809	      4.61901407	      6.01449447	     -0.69368453	      5.60315797	      6.04385825	      1.75897729
      0.90800000	     -3.50883839	     -2.44312014	     -0.75516119	     -0.19643179	      1.04674583	      0.34434243	     -3.87275441	      8.09154711	      1.57720600	    -17.42232129	     11.78302343	    -12.07215241	      0.49339236	     25.63741380	     -1.13873529	     -5.76934249	     -4.40213723	      4.51361513	      6.38295494	     -0.73361937	      5.53194207	      6.02835850	      1.80465062
      0.91216667	     -3.47576477	     -2.42570338	     -0.83695596	     -0.19037876	      1.04633750	      0.34432267	     -3.88822567	      8.02812495	      1.49177136	    -18.18419548	     11.72435845	    -12.03094847	      0.49676420	     25.46485761	     -1.10554836	     -5.67719673	     -4.62785136	      4.46872186	      6.46024150	     -0.73749511	      5.59469618	      5.99800346	      1.81340317
      0.91633333	     -3.42064120	     -2.36926050	     -0.82900635	     -0.18416569	      1.04599544	      0.34396146	     -3.90112196	      7.89144019	      1.12032223	    -18.98969237	     11.64262685	    -11.28438916	      0.54345921	     25.26539556	     -0.96886259	     -5.56880403	     -4.87369866	      4.22071515	      6.72100806	     -0.76741410	      5.55063060	      5.98422918	      1.88040005
      0.92050000	     -3.36733230	     -2.35229997	     -0.89072083	     -0.17812695	      1.04566872	      0.34394189	     -3.87871451	      7.82248351	      0.96933075	    -19.85724608	     11.54900779	    -11.23968891	      0.54967047	     25.07507664	     -0.92986454	     -5.50812250	     -5.16878501	      4.15652469	      6.76005041	     -0.76904050	      5.60321785	      5.92892256	      1.89285910
      0.92466667	     -3.32506009	     -2.30008488	     -0.84171514	     -0.17193480	      1.04534543	      0.34354517	     -3.81367933	      7.68490246	      0.52732275	    -20.76229314	     11.23227505	    -10.61368632	      0.59892270	     24.90136671	     -0.78166189	     -5.41583615	     -5.48169087	      3.79949066	      6.77842485	     -0.77561196	      5.53750709	      5.85521318	      1.95072786
      0.92883333	     -3.25912687	     -2.21257098	     -0.89051619	     -0.16571306	      1.04514985	      0.34317598	     -3.74470038	      7.48131505	      0.21013687	    -21.74577823	     11.08619704	     -9.94334717	      0.70338453	     24.63068444	     -0.62532884	     -5.14020500	     -5.69120445	      3.46020626	      6.54676932	     -0.76802873	      5.54173794	      5.83376205	      2.00496845
      0.93300000	     -3.21859843	     -2.16435558	     -0.88113413	     -0.15962802	      1.04488787	      0.34293253	     -3.60473847	      7.34655356	     -0.14082460	    -22.78477350	     10.80162942	     -9.63991488	      0.76354533	     24.45136093	     -0.51093775	     -5.06026804	     -6.02728332	      3.21504267	      6.41107711	     -0.75831157	      5.50652703	      5.71614395	      2.03760486
      0.93716667	     -3.17056888	     -2.08084808	     -0.89321992	     -0.15346570	      1.04471598	      0.34259800	     -3.44210611	      7.14807035	     -0.49495330	    -23.87693765	     10.38459636	     -9.14996462	      0.85145310	     24.22109471	     -0.35599665	     -4.85897084	     -6.29132197	      2.83935061	      6.18148094	     -0.74016830	      5.51115664	      5.63261879	      2.07044059
      0.94133333	     -3.11473330	     -1.96201963	     -0.93815829	     -0.14725305	      1.04461996	      0.34215036	     -3.25214865	      6.88258232	     -0.83482936	    -25.04344115	     10.02669544	     -8.58131018	      1.02571534	     23.93713162	     -0.15835129	     -4.50653212	     -6.48349901	      2.39511153	      5.63015040	     -0.69332907	      5.56498205	      5.59765490	      2.09599144
      0.94550000	     -3.08435717	     -1.85599455	     -0.96014093	     -0.14114933	      1.04448901	      0.34193061	     -2.98710260	      6.65726007	     -1.18598768	    -26.29005088	      9.73720335	     -8.44051585	      1.06605599	     23.74127555	      0.00064338	     -4.46031539	     -6.80202845	      2.24031808	      5.56475748	     -0.68115244	      5.48475266	      5.46648208	      2.10531347
      0.94966667	     -3.03660999	     -1.77778285	     -0.92694801	     -0.13515033	      1.04439966	      0.34154678	     -2.70117639	      6.44787390	     -1.55666060	    -27.55254643	      8.94681427	     -7.82935783	      1.18510633	     23.53138368	      0.16006286	     -4.20582005	     -7.10249575	      1.75662740	      5.13521976	     -0.65026662	      5.49666938	      5.27204044	      2.14178003
      0.95383333	     -3.01146952	     -1.61670063	     -0.94589470	     -0.12898565	      1.04436581	      0.34095039	     -2.35467800	      6.10069221	     -1.95332324	    -28.90593266	      8.30646294	     -7.25833056	      1.41044795	     23.28233776	      0.41750167	     -3.81085865	     -7.30222470	      1.23846973	      4.29620470	     -0.58562329	      5.56872373	      5.18371495	      2.15170407
      0.95800000	     -2.97855714	     -1.46804695	     -0.95484646	     -0.12291744	      1.04436664	      0.34044707	     -1.97261734	      5.77622597	     -2.32222189	    -30.32785074	      7.70573947	     -6.88049102	      1.68027482	     23.05058830	      0.64954051	     -3.49421008	     -7.55037919	      0.85465803	      3.63700458	     -0.50131236	      5.63014021	      5.08531144	      2.14257018
      0.96216667	     -2.95511892	     -1.32303375	     -0.92780206	     -0.11698617	      1.04434562	      0.33984195	     -1.52825319	      5.44369799	     -2.72716666	    -31.82728235	      7.13086385	     -6.55202312	      2.21447934	     22.85412558	      0.89321030	     -3.12049549	     -7.83304690	      0.41164220	      2.76479741	     -0.33228331	      5.60236121	      4.92061015	      2.11141619
      0.96633333	     -2.89863342	     -1.16284098	     -0.94212224	     -0.11109531	      1.04442457	      0.33957060	     -1.08695156	      5.11852406	     -3.00912349	    -33.35522233	      6.34690396	     -6.23806166	      2.33802286	     22.64238815	      1.09599905	     -3.00198102	     -8.17688130	      0.25245201	      2.70106385	     -0.29267366	      5.50217710	      4.64359453	      2.12415360
      0.97050000	     -2.85355601	     -0.98189720	     -0.95648335	     -0.10520076	      1.04452368	      0.33917079	     -0.59434342	      4.74989239	     -3.29685296	    -34.92949836	      5.41063155	     -5.91725395	      2.48587779	     22.43585092	      1.33274229	     -2.82474599	     -8.50650836	      0.04745978	      2.40931280	     -0.25071117	      5.46170717	      4.42705485	      2.12701584
